<mxfile host="Electron" agent="Mozilla/5.0 (Windows NT 10.0; Win64; x64) AppleWebKit/537.36 (KHTML, like Gecko) draw.io/27.0.9 Chrome/134.0.6998.205 Electron/35.4.0 Safari/537.36" version="27.0.9">
  <diagram name="Page-1" id="MIKwasgMDxJdLBR449PK">
    <mxGraphModel dx="1544" dy="1020" grid="1" gridSize="10" guides="1" tooltips="1" connect="1" arrows="1" fold="1" page="1" pageScale="1" pageWidth="1169" pageHeight="827" math="1" shadow="0">
      <root>
        <mxCell id="0" />
        <mxCell id="1" parent="0" />
        <mxCell id="F97Cwb_G5MunfwHorPPL-83" value="&lt;div&gt;&lt;br&gt;&lt;/div&gt;&lt;div&gt;&lt;br&gt;&lt;/div&gt;&lt;div&gt;&lt;br&gt;&lt;/div&gt;&lt;div&gt;&lt;br&gt;&lt;/div&gt;&lt;div&gt;&lt;br&gt;&lt;/div&gt;&lt;div&gt;&lt;br&gt;&lt;/div&gt;&lt;div&gt;&lt;br&gt;&lt;/div&gt;&lt;div&gt;&lt;br&gt;&lt;/div&gt;&lt;div&gt;&lt;br&gt;&lt;/div&gt;&lt;div&gt;&lt;br&gt;&lt;/div&gt;&lt;div&gt;&lt;br&gt;&lt;/div&gt;&lt;div&gt;&lt;br&gt;&lt;/div&gt;&lt;div&gt;&lt;br&gt;&lt;/div&gt;&lt;div&gt;&lt;br&gt;&lt;/div&gt;&lt;div&gt;&lt;br&gt;&lt;/div&gt;&lt;div&gt;&lt;br&gt;&lt;/div&gt;&lt;div&gt;&lt;br&gt;&lt;/div&gt;&lt;div&gt;&lt;br&gt;&lt;/div&gt;&lt;div&gt;&lt;br&gt;&lt;/div&gt;&lt;div&gt;&lt;br&gt;&lt;/div&gt;&lt;div&gt;&lt;br&gt;&lt;/div&gt;&lt;div&gt;&lt;br&gt;&lt;/div&gt;&lt;div&gt;&lt;br&gt;&lt;/div&gt;&lt;div&gt;&lt;br&gt;&lt;/div&gt;&lt;b&gt;&lt;font style=&quot;font-size: 14px;&quot;&gt;&amp;nbsp; &amp;nbsp; ReÃ³stato de arranque&lt;/font&gt;&lt;/b&gt;" style="rounded=0;whiteSpace=wrap;html=1;align=left;fillStyle=solid;dashed=1;" vertex="1" parent="1">
          <mxGeometry x="199" y="90" width="440" height="380" as="geometry" />
        </mxCell>
        <mxCell id="F97Cwb_G5MunfwHorPPL-46" value="" style="verticalLabelPosition=bottom;outlineConnect=0;align=center;dashed=0;html=1;verticalAlign=top;shape=mxgraph.pid2misc.column;columnType=common;rotation=-67;strokeWidth=1.9685;fillColor=#647687;fontColor=#ffffff;strokeColor=#314354;" vertex="1" parent="1">
          <mxGeometry x="312.28" y="204.12" width="40.72" height="209" as="geometry" />
        </mxCell>
        <mxCell id="F97Cwb_G5MunfwHorPPL-1" value="" style="ellipse;whiteSpace=wrap;html=1;aspect=fixed;strokeWidth=1.9685;rotation=0;fillColor=#B5A642;" vertex="1" parent="1">
          <mxGeometry x="270" y="216" width="30" height="30" as="geometry" />
        </mxCell>
        <mxCell id="F97Cwb_G5MunfwHorPPL-3" value="" style="ellipse;whiteSpace=wrap;html=1;aspect=fixed;strokeWidth=1.9685;rotation=-20;fillColor=#B5A642;" vertex="1" parent="1">
          <mxGeometry x="313" y="182" width="30" height="30" as="geometry" />
        </mxCell>
        <mxCell id="F97Cwb_G5MunfwHorPPL-4" value="" style="ellipse;whiteSpace=wrap;html=1;aspect=fixed;strokeWidth=1.9685;rotation=-9;fillColor=#B5A642;" vertex="1" parent="1">
          <mxGeometry x="369" y="162" width="30" height="30" as="geometry" />
        </mxCell>
        <mxCell id="F97Cwb_G5MunfwHorPPL-5" value="" style="ellipse;whiteSpace=wrap;html=1;aspect=fixed;strokeWidth=1.9685;rotation=10;fillColor=#B5A642;" vertex="1" parent="1">
          <mxGeometry x="424" y="162" width="30" height="30" as="geometry" />
        </mxCell>
        <mxCell id="F97Cwb_G5MunfwHorPPL-6" value="" style="ellipse;whiteSpace=wrap;html=1;aspect=fixed;strokeWidth=1.9685;rotation=25;fillColor=#B5A642;" vertex="1" parent="1">
          <mxGeometry x="481" y="182" width="30" height="30" as="geometry" />
        </mxCell>
        <mxCell id="F97Cwb_G5MunfwHorPPL-7" value="" style="ellipse;whiteSpace=wrap;html=1;aspect=fixed;strokeWidth=1.9685;rotation=5;fillColor=#B5A642;" vertex="1" parent="1">
          <mxGeometry x="521" y="216" width="30" height="30" as="geometry" />
        </mxCell>
        <mxCell id="F97Cwb_G5MunfwHorPPL-8" value="" style="ellipse;whiteSpace=wrap;html=1;aspect=fixed;strokeWidth=1.9685;dashed=1;rotation=9;fillColor=#B5A642;" vertex="1" parent="1">
          <mxGeometry x="241" y="262" width="30" height="30" as="geometry" />
        </mxCell>
        <mxCell id="F97Cwb_G5MunfwHorPPL-9" value="" style="ellipse;whiteSpace=wrap;html=1;aspect=fixed;strokeWidth=1.9685;rotation=-5;fillColor=#B5A642;" vertex="1" parent="1">
          <mxGeometry x="551" y="262" width="30" height="30" as="geometry" />
        </mxCell>
        <mxCell id="F97Cwb_G5MunfwHorPPL-22" style="rounded=0;orthogonalLoop=1;jettySize=auto;html=1;exitX=1;exitY=0.5;exitDx=0;exitDy=0;exitPerimeter=0;entryX=0;entryY=0;entryDx=0;entryDy=0;endArrow=none;startFill=0;strokeWidth=1.9685;" edge="1" parent="1" source="F97Cwb_G5MunfwHorPPL-10" target="F97Cwb_G5MunfwHorPPL-1">
          <mxGeometry relative="1" as="geometry" />
        </mxCell>
        <mxCell id="F97Cwb_G5MunfwHorPPL-24" style="rounded=0;orthogonalLoop=1;jettySize=auto;html=1;exitX=0;exitY=0.5;exitDx=0;exitDy=0;exitPerimeter=0;entryX=0;entryY=0.5;entryDx=0;entryDy=0;endArrow=none;startFill=0;strokeWidth=1.9685;" edge="1" parent="1" source="F97Cwb_G5MunfwHorPPL-10" target="F97Cwb_G5MunfwHorPPL-8">
          <mxGeometry relative="1" as="geometry" />
        </mxCell>
        <mxCell id="F97Cwb_G5MunfwHorPPL-10" value="" style="pointerEvents=1;verticalLabelPosition=bottom;shadow=0;dashed=0;align=center;html=1;verticalAlign=top;shape=mxgraph.electrical.resistors.resistor_2;rotation=-59;strokeWidth=1.9685;" vertex="1" parent="1">
          <mxGeometry x="210" y="225" width="43.17" height="14" as="geometry" />
        </mxCell>
        <mxCell id="F97Cwb_G5MunfwHorPPL-25" style="rounded=0;orthogonalLoop=1;jettySize=auto;html=1;exitX=0;exitY=0.5;exitDx=0;exitDy=0;exitPerimeter=0;entryX=0;entryY=0;entryDx=0;entryDy=0;endArrow=none;startFill=0;strokeWidth=1.9685;" edge="1" parent="1" source="F97Cwb_G5MunfwHorPPL-12" target="F97Cwb_G5MunfwHorPPL-1">
          <mxGeometry relative="1" as="geometry" />
        </mxCell>
        <mxCell id="F97Cwb_G5MunfwHorPPL-26" style="rounded=0;orthogonalLoop=1;jettySize=auto;html=1;exitX=1;exitY=0.5;exitDx=0;exitDy=0;exitPerimeter=0;entryX=0.5;entryY=0;entryDx=0;entryDy=0;endArrow=none;startFill=0;strokeWidth=1.9685;" edge="1" parent="1" source="F97Cwb_G5MunfwHorPPL-12" target="F97Cwb_G5MunfwHorPPL-3">
          <mxGeometry relative="1" as="geometry" />
        </mxCell>
        <mxCell id="F97Cwb_G5MunfwHorPPL-12" value="" style="pointerEvents=1;verticalLabelPosition=bottom;shadow=0;dashed=0;align=center;html=1;verticalAlign=top;shape=mxgraph.electrical.resistors.resistor_2;rotation=-38;strokeWidth=1.9685;" vertex="1" parent="1">
          <mxGeometry x="259.40999999999997" y="169" width="43.17" height="14" as="geometry" />
        </mxCell>
        <mxCell id="F97Cwb_G5MunfwHorPPL-27" style="rounded=0;orthogonalLoop=1;jettySize=auto;html=1;exitX=0;exitY=0.5;exitDx=0;exitDy=0;exitPerimeter=0;endArrow=none;startFill=0;strokeWidth=1.9685;entryX=0.5;entryY=0;entryDx=0;entryDy=0;" edge="1" parent="1" source="F97Cwb_G5MunfwHorPPL-13" target="F97Cwb_G5MunfwHorPPL-3">
          <mxGeometry relative="1" as="geometry">
            <mxPoint x="326.57142857142856" y="182" as="targetPoint" />
          </mxGeometry>
        </mxCell>
        <mxCell id="F97Cwb_G5MunfwHorPPL-28" style="rounded=0;orthogonalLoop=1;jettySize=auto;html=1;exitX=1;exitY=0.5;exitDx=0;exitDy=0;exitPerimeter=0;entryX=0.5;entryY=0;entryDx=0;entryDy=0;endArrow=none;startFill=0;strokeWidth=1.9685;" edge="1" parent="1" source="F97Cwb_G5MunfwHorPPL-13" target="F97Cwb_G5MunfwHorPPL-4">
          <mxGeometry relative="1" as="geometry" />
        </mxCell>
        <mxCell id="F97Cwb_G5MunfwHorPPL-13" value="" style="pointerEvents=1;verticalLabelPosition=bottom;shadow=0;dashed=0;align=center;html=1;verticalAlign=top;shape=mxgraph.electrical.resistors.resistor_2;rotation=-16;strokeWidth=1.9685;" vertex="1" parent="1">
          <mxGeometry x="324.83000000000004" y="135" width="43.17" height="14" as="geometry" />
        </mxCell>
        <mxCell id="F97Cwb_G5MunfwHorPPL-29" style="rounded=0;orthogonalLoop=1;jettySize=auto;html=1;exitX=0;exitY=0.5;exitDx=0;exitDy=0;exitPerimeter=0;entryX=0.5;entryY=0;entryDx=0;entryDy=0;endArrow=none;startFill=0;strokeWidth=1.9685;" edge="1" parent="1" source="F97Cwb_G5MunfwHorPPL-14" target="F97Cwb_G5MunfwHorPPL-4">
          <mxGeometry relative="1" as="geometry" />
        </mxCell>
        <mxCell id="F97Cwb_G5MunfwHorPPL-30" style="rounded=0;orthogonalLoop=1;jettySize=auto;html=1;exitX=1;exitY=0.5;exitDx=0;exitDy=0;exitPerimeter=0;entryX=0.5;entryY=0;entryDx=0;entryDy=0;endArrow=none;startFill=0;strokeWidth=1.9685;" edge="1" parent="1" source="F97Cwb_G5MunfwHorPPL-14" target="F97Cwb_G5MunfwHorPPL-5">
          <mxGeometry relative="1" as="geometry" />
        </mxCell>
        <mxCell id="F97Cwb_G5MunfwHorPPL-14" value="" style="pointerEvents=1;verticalLabelPosition=bottom;shadow=0;dashed=0;align=center;html=1;verticalAlign=top;shape=mxgraph.electrical.resistors.resistor_2;rotation=0;strokeWidth=1.9685;" vertex="1" parent="1">
          <mxGeometry x="390.41" y="125" width="43.17" height="14" as="geometry" />
        </mxCell>
        <mxCell id="F97Cwb_G5MunfwHorPPL-31" style="rounded=0;orthogonalLoop=1;jettySize=auto;html=1;exitX=0;exitY=0.5;exitDx=0;exitDy=0;exitPerimeter=0;entryX=0.5;entryY=0;entryDx=0;entryDy=0;endArrow=none;startFill=0;strokeWidth=1.9685;" edge="1" parent="1" source="F97Cwb_G5MunfwHorPPL-15" target="F97Cwb_G5MunfwHorPPL-5">
          <mxGeometry relative="1" as="geometry" />
        </mxCell>
        <mxCell id="F97Cwb_G5MunfwHorPPL-32" style="rounded=0;orthogonalLoop=1;jettySize=auto;html=1;exitX=1;exitY=0.5;exitDx=0;exitDy=0;exitPerimeter=0;entryX=0.5;entryY=0;entryDx=0;entryDy=0;endArrow=none;startFill=0;strokeWidth=1.9685;" edge="1" parent="1" source="F97Cwb_G5MunfwHorPPL-15" target="F97Cwb_G5MunfwHorPPL-6">
          <mxGeometry relative="1" as="geometry" />
        </mxCell>
        <mxCell id="F97Cwb_G5MunfwHorPPL-15" value="" style="pointerEvents=1;verticalLabelPosition=bottom;shadow=0;dashed=0;align=center;html=1;verticalAlign=top;shape=mxgraph.electrical.resistors.resistor_2;rotation=20;strokeWidth=1.9685;" vertex="1" parent="1">
          <mxGeometry x="458.83000000000004" y="138" width="43.17" height="14" as="geometry" />
        </mxCell>
        <mxCell id="F97Cwb_G5MunfwHorPPL-34" style="rounded=0;orthogonalLoop=1;jettySize=auto;html=1;exitX=0;exitY=0.5;exitDx=0;exitDy=0;exitPerimeter=0;entryX=0.5;entryY=0;entryDx=0;entryDy=0;endArrow=none;startFill=0;strokeWidth=1.9685;" edge="1" parent="1" source="F97Cwb_G5MunfwHorPPL-16" target="F97Cwb_G5MunfwHorPPL-6">
          <mxGeometry relative="1" as="geometry" />
        </mxCell>
        <mxCell id="F97Cwb_G5MunfwHorPPL-35" style="rounded=0;orthogonalLoop=1;jettySize=auto;html=1;exitX=1;exitY=0.5;exitDx=0;exitDy=0;exitPerimeter=0;entryX=1;entryY=0;entryDx=0;entryDy=0;endArrow=none;startFill=0;strokeWidth=1.9685;" edge="1" parent="1" source="F97Cwb_G5MunfwHorPPL-16" target="F97Cwb_G5MunfwHorPPL-7">
          <mxGeometry relative="1" as="geometry" />
        </mxCell>
        <mxCell id="F97Cwb_G5MunfwHorPPL-16" value="" style="pointerEvents=1;verticalLabelPosition=bottom;shadow=0;dashed=0;align=center;html=1;verticalAlign=top;shape=mxgraph.electrical.resistors.resistor_2;rotation=40;strokeWidth=1.9685;" vertex="1" parent="1">
          <mxGeometry x="519" y="170" width="43.17" height="14" as="geometry" />
        </mxCell>
        <mxCell id="F97Cwb_G5MunfwHorPPL-36" style="rounded=0;orthogonalLoop=1;jettySize=auto;html=1;exitX=0;exitY=0.5;exitDx=0;exitDy=0;exitPerimeter=0;entryX=1;entryY=0;entryDx=0;entryDy=0;endArrow=none;startFill=0;strokeWidth=1.9685;" edge="1" parent="1" source="F97Cwb_G5MunfwHorPPL-17" target="F97Cwb_G5MunfwHorPPL-7">
          <mxGeometry relative="1" as="geometry" />
        </mxCell>
        <mxCell id="F97Cwb_G5MunfwHorPPL-37" style="rounded=0;orthogonalLoop=1;jettySize=auto;html=1;exitX=1;exitY=0.5;exitDx=0;exitDy=0;exitPerimeter=0;entryX=1;entryY=0.5;entryDx=0;entryDy=0;endArrow=none;startFill=0;strokeWidth=1.9685;" edge="1" parent="1" source="F97Cwb_G5MunfwHorPPL-17" target="F97Cwb_G5MunfwHorPPL-9">
          <mxGeometry relative="1" as="geometry" />
        </mxCell>
        <mxCell id="F97Cwb_G5MunfwHorPPL-17" value="" style="pointerEvents=1;verticalLabelPosition=bottom;shadow=0;dashed=0;align=center;html=1;verticalAlign=top;shape=mxgraph.electrical.resistors.resistor_2;rotation=58;strokeWidth=1.9685;" vertex="1" parent="1">
          <mxGeometry x="567.83" y="225" width="43.17" height="14" as="geometry" />
        </mxCell>
        <mxCell id="F97Cwb_G5MunfwHorPPL-57" value="$$r_1$$" style="text;html=1;align=center;verticalAlign=middle;whiteSpace=wrap;rounded=0;" vertex="1" parent="1">
          <mxGeometry x="181" y="204.12" width="60" height="30" as="geometry" />
        </mxCell>
        <mxCell id="F97Cwb_G5MunfwHorPPL-58" value="$$r_2$$" style="text;html=1;align=center;verticalAlign=middle;whiteSpace=wrap;rounded=0;" vertex="1" parent="1">
          <mxGeometry x="226" y="149" width="60" height="30" as="geometry" />
        </mxCell>
        <mxCell id="F97Cwb_G5MunfwHorPPL-59" value="$$r_3$$" style="text;html=1;align=center;verticalAlign=middle;whiteSpace=wrap;rounded=0;" vertex="1" parent="1">
          <mxGeometry x="302.64" y="105" width="60" height="30" as="geometry" />
        </mxCell>
        <mxCell id="F97Cwb_G5MunfwHorPPL-60" value="$$r_4$$" style="text;html=1;align=center;verticalAlign=middle;whiteSpace=wrap;rounded=0;" vertex="1" parent="1">
          <mxGeometry x="382" y="90" width="60" height="30" as="geometry" />
        </mxCell>
        <mxCell id="F97Cwb_G5MunfwHorPPL-61" value="$$r_5$$" style="text;html=1;align=center;verticalAlign=middle;whiteSpace=wrap;rounded=0;" vertex="1" parent="1">
          <mxGeometry x="461" y="105" width="60" height="30" as="geometry" />
        </mxCell>
        <mxCell id="F97Cwb_G5MunfwHorPPL-62" value="$$r_6$$" style="text;html=1;align=center;verticalAlign=middle;whiteSpace=wrap;rounded=0;" vertex="1" parent="1">
          <mxGeometry x="535" y="149" width="60" height="30" as="geometry" />
        </mxCell>
        <mxCell id="F97Cwb_G5MunfwHorPPL-63" value="$$r_7$$" style="text;html=1;align=center;verticalAlign=middle;whiteSpace=wrap;rounded=0;" vertex="1" parent="1">
          <mxGeometry x="585" y="204.12" width="60" height="30" as="geometry" />
        </mxCell>
        <mxCell id="F97Cwb_G5MunfwHorPPL-48" value="" style="verticalLabelPosition=bottom;shadow=0;dashed=0;align=center;html=1;verticalAlign=top;shape=mxgraph.electrical.rot_mech.verticalLabelPosition=bottom;shadow=0;dashed=0;align=center;fillColor=strokeColor;html=1;verticalAlign=top;strokeWidth=1;shape=mxgraph.electrical.rot_mech.rotation;flipV=1;flipH=0;direction=north;rotation=-70;" vertex="1" parent="1">
          <mxGeometry x="367.15" y="291.68" width="83.41" height="100" as="geometry" />
        </mxCell>
        <mxCell id="F97Cwb_G5MunfwHorPPL-72" value="" style="group;strokeWidth=1.9685;" vertex="1" connectable="0" parent="1">
          <mxGeometry x="750" y="283.12" width="140" height="120" as="geometry" />
        </mxCell>
        <mxCell id="F97Cwb_G5MunfwHorPPL-66" value="" style="rounded=0;whiteSpace=wrap;html=1;fillColor=#000000;" vertex="1" parent="F97Cwb_G5MunfwHorPPL-72">
          <mxGeometry y="30" width="140" height="60" as="geometry" />
        </mxCell>
        <mxCell id="F97Cwb_G5MunfwHorPPL-65" value="&lt;font style=&quot;font-size: 49px;&quot;&gt;M&lt;/font&gt;&lt;div&gt;&lt;sup&gt;&lt;font style=&quot;&quot;&gt;&lt;br&gt;&lt;/font&gt;&lt;/sup&gt;&lt;/div&gt;" style="ellipse;whiteSpace=wrap;html=1;aspect=fixed;strokeWidth=1.9685;" vertex="1" parent="F97Cwb_G5MunfwHorPPL-72">
          <mxGeometry x="10" width="120" height="120" as="geometry" />
        </mxCell>
        <mxCell id="F97Cwb_G5MunfwHorPPL-71" value="" style="group" vertex="1" connectable="0" parent="F97Cwb_G5MunfwHorPPL-72">
          <mxGeometry x="38" y="77.88" width="64" height="10" as="geometry" />
        </mxCell>
        <mxCell id="F97Cwb_G5MunfwHorPPL-67" value="" style="endArrow=none;html=1;rounded=0;strokeWidth=1.9685;" edge="1" parent="F97Cwb_G5MunfwHorPPL-71">
          <mxGeometry width="50" height="50" relative="1" as="geometry">
            <mxPoint as="sourcePoint" />
            <mxPoint x="64" as="targetPoint" />
          </mxGeometry>
        </mxCell>
        <mxCell id="F97Cwb_G5MunfwHorPPL-68" value="" style="endArrow=none;html=1;rounded=0;strokeWidth=1.9685;" edge="1" parent="F97Cwb_G5MunfwHorPPL-71">
          <mxGeometry width="50" height="50" relative="1" as="geometry">
            <mxPoint y="10" as="sourcePoint" />
            <mxPoint x="16" y="10" as="targetPoint" />
          </mxGeometry>
        </mxCell>
        <mxCell id="F97Cwb_G5MunfwHorPPL-69" value="" style="endArrow=none;html=1;rounded=0;strokeWidth=1.9685;" edge="1" parent="F97Cwb_G5MunfwHorPPL-71">
          <mxGeometry width="50" height="50" relative="1" as="geometry">
            <mxPoint x="24" y="10" as="sourcePoint" />
            <mxPoint x="40" y="10" as="targetPoint" />
          </mxGeometry>
        </mxCell>
        <mxCell id="F97Cwb_G5MunfwHorPPL-70" value="" style="endArrow=none;html=1;rounded=0;strokeWidth=1.9685;" edge="1" parent="F97Cwb_G5MunfwHorPPL-71">
          <mxGeometry width="50" height="50" relative="1" as="geometry">
            <mxPoint x="48" y="10" as="sourcePoint" />
            <mxPoint x="64" y="10" as="targetPoint" />
          </mxGeometry>
        </mxCell>
        <mxCell id="F97Cwb_G5MunfwHorPPL-73" style="rounded=0;orthogonalLoop=1;jettySize=auto;html=1;entryX=1;entryY=0.5;entryDx=0;entryDy=0;exitX=0;exitY=0.5;exitDx=0;exitDy=0;endArrow=none;startFill=0;strokeWidth=1.9685;" edge="1" parent="1" source="F97Cwb_G5MunfwHorPPL-66" target="F97Cwb_G5MunfwHorPPL-9">
          <mxGeometry relative="1" as="geometry">
            <Array as="points">
              <mxPoint x="610" y="343" />
            </Array>
          </mxGeometry>
        </mxCell>
        <mxCell id="F97Cwb_G5MunfwHorPPL-74" value="" style="ellipse;whiteSpace=wrap;html=1;aspect=fixed;strokeWidth=1.9685;fillColor=#000000;" vertex="1" parent="1">
          <mxGeometry x="620" y="338.12" width="10" height="10" as="geometry" />
        </mxCell>
        <mxCell id="F97Cwb_G5MunfwHorPPL-77" style="rounded=0;orthogonalLoop=1;jettySize=auto;html=1;exitX=0;exitY=0.645;exitDx=0;exitDy=0;exitPerimeter=0;entryX=1;entryY=0.5;entryDx=0;entryDy=0;endArrow=none;startFill=0;strokeWidth=1.9685;" edge="1" parent="1" target="F97Cwb_G5MunfwHorPPL-66">
          <mxGeometry relative="1" as="geometry">
            <mxPoint x="960" y="343.37" as="sourcePoint" />
          </mxGeometry>
        </mxCell>
        <mxCell id="F97Cwb_G5MunfwHorPPL-79" style="rounded=0;orthogonalLoop=1;jettySize=auto;html=1;exitX=0;exitY=0.645;exitDx=0;exitDy=0;exitPerimeter=0;entryX=1;entryY=0.5;entryDx=0;entryDy=0;endArrow=none;startFill=0;strokeWidth=1.9685;dashed=1;" edge="1" parent="1">
          <mxGeometry relative="1" as="geometry">
            <mxPoint x="1007" y="343.37" as="sourcePoint" />
            <mxPoint x="937" y="343" as="targetPoint" />
          </mxGeometry>
        </mxCell>
        <mxCell id="F97Cwb_G5MunfwHorPPL-80" value="" style="endArrow=none;html=1;rounded=0;strokeWidth=1.9685;" edge="1" parent="1">
          <mxGeometry width="50" height="50" relative="1" as="geometry">
            <mxPoint x="410" y="363" as="sourcePoint" />
            <mxPoint x="410" y="460" as="targetPoint" />
          </mxGeometry>
        </mxCell>
        <mxCell id="F97Cwb_G5MunfwHorPPL-81" value="" style="ellipse;whiteSpace=wrap;html=1;aspect=fixed;strokeWidth=1.9685;fillColor=#000000;" vertex="1" parent="1">
          <mxGeometry x="405" y="451.12" width="10" height="10" as="geometry" />
        </mxCell>
        <mxCell id="F97Cwb_G5MunfwHorPPL-89" value="" style="group" vertex="1" connectable="0" parent="1">
          <mxGeometry x="395.41" y="328.24" width="26.879999999999995" height="26.879999999999995" as="geometry" />
        </mxCell>
        <mxCell id="F97Cwb_G5MunfwHorPPL-86" value="" style="ellipse;whiteSpace=wrap;html=1;aspect=fixed;strokeWidth=1.9685;fillColor=#707070;" vertex="1" parent="F97Cwb_G5MunfwHorPPL-89">
          <mxGeometry width="26.88" height="26.88" as="geometry" />
        </mxCell>
        <mxCell id="F97Cwb_G5MunfwHorPPL-49" value="" style="ellipse;whiteSpace=wrap;html=1;aspect=fixed;" vertex="1" parent="F97Cwb_G5MunfwHorPPL-89">
          <mxGeometry x="8.440000000000055" y="8.439999999999998" width="10" height="10" as="geometry" />
        </mxCell>
        <mxCell id="F97Cwb_G5MunfwHorPPL-92" value="&lt;b&gt;&lt;font style=&quot;font-size: 32px;&quot;&gt;L&lt;/font&gt;&lt;/b&gt;" style="text;html=1;align=center;verticalAlign=middle;whiteSpace=wrap;rounded=0;" vertex="1" parent="1">
          <mxGeometry x="404" y="420" width="70" height="50" as="geometry" />
        </mxCell>
        <mxCell id="F97Cwb_G5MunfwHorPPL-93" value="&lt;b&gt;&lt;font style=&quot;font-size: 32px;&quot;&gt;R&lt;/font&gt;&lt;/b&gt;" style="text;html=1;align=center;verticalAlign=middle;whiteSpace=wrap;rounded=0;" vertex="1" parent="1">
          <mxGeometry x="567.83" y="341.68" width="70" height="50" as="geometry" />
        </mxCell>
      </root>
    </mxGraphModel>
  </diagram>
</mxfile>
